/* XPM */
static char *smaller[] = {
/* columns rows colors chars-per-pixel */
"122 100 4 1",
"  c #FFFFFF",
"! c #000000",
"# c #FF0000",
"$ c #0000FF",
/* pixels */
"#############################################################!############################################################",
"#############################################################!############################################################",
"#############################################################!############################################################",
"#############################################################!############################################################",
"#############################################################!############################################################",
"#####$$$                                                     !                                                       #####",
"#####$$$                                                     !                                                       #####",
"#####$$$                                                     !                                                       #####",
"#####                                                        !                                                       #####",
"#####                                                        !                                                       #####",
"#####                                                        !                                                       #####",
"#####                                                        !                                                       #####",
"#####                                                        !                                                       #####",
"#####                                                        !                                                       #####",
"#####                                                        !                                                       #####",
"#####                                                        !                                                       #####",
"#####                                                        !                                                       #####",
"#####                                                        !                                                       #####",
"#####                                                        !                                                       #####",
"#####                                                        !                                                       #####",
"#####                                                        !                                                       #####",
"#####                                                        !                                                       #####",
"#####                                                        !                                                       #####",
"#####                                                        !                                                       #####",
"#####                                                        !                                                       #####",
"#####                                                        !                                                       #####",
"#####                                                        !                                                       #####",
"#####                                                        !                                                       #####",
"#####                                                        !                                                       #####",
"#####                                                        !                                                       #####",
"#####                                                        !                                                       #####",
"#####                                                        !                                                       #####",
"#####                                                        !                                                       #####",
"#####                                                        !                                                       #####",
"#####                                                        !                                                       #####",
"#####                                                        !                                                       #####",
"#####                                                        !                                                       #####",
"#####                                                        !                                                       #####",
"#####                                                        !                                                       #####",
"#####                                                        !                                                       #####",
"#####                                                        !                                                       #####",
"#####                                                        !                                                       #####",
"#####                                                        !                                                       #####",
"#####                                                        !                                                       #####",
"#####                                                        !                                                       #####",
"#####                                                        !                                                       #####",
"#####                                                        !                                                       #####",
"#####                                                        !                                                       #####",
"#####                                                        !                                                       #####",
"#####                                                        !                                                       #####",
"!!!!!!!!!!!!!!!!!!!!!!!!!!!!!!!!!!!!!!!!!!!!!!!!!!!!!!!!!!!!!!!!!!!!!!!!!!!!!!!!!!!!!!!!!!!!!!!!!!!!!!!!!!!!!!!!!!!!!!!!!!",
"#####                                                        !                                                       #####",
"#####                                                        !                                                       #####",
"#####                                                        !                                                       #####",
"#####                                                        !                                                       #####",
"#####                                                        !                                                       #####",
"#####                                                        !                                                       #####",
"#####                                                        !                                                       #####",
"#####                                                        !                                                       #####",
"#####                                                        !                                                       #####",
"#####                                                        !                                                       #####",
"#####!!!!!!!!!!!!!!!!!!!!!!!!!!!!!!!!!!!!!!!!!!!!!!!!!!!!!!!!!!!!!!!!!!!!!!!!!!!!!!!!!!!!!!!!!!!!!!!!!!!!!!!!!!!!!!!!#####",
"#####                                                        !                                                       #####",
"#####                                                        !                                                       #####",
"#####                                                        !                                                       #####",
"#####                                                        !                                                       #####",
"#####                                                        !                                                       #####",
"#####                                                        !                                                       #####",
"#####                                                        !                                                       #####",
"#####                                                        !                                                       #####",
"#####                                                        !                                                       #####",
"#####                                                        !                                                       #####",
"#####                                                        !                                                       #####",
"#####                                                        !                                                       #####",
"#####                                                        !                                                       #####",
"#####                                                        !                                                       #####",
"#####                                                        !                                                       #####",
"#####                                                        !                                                       #####",
"#####                                                        !                                                       #####",
"#####                                                        !                                                       #####",
"#####                                                        !                                                       #####",
"#####                                                        !                                                       #####",
"#####                                                        !                                                       #####",
"#####                                                        !                                                       #####",
"#####                                                        !                                                       #####",
"#####                                                        !                                                       #####",
"#####                                                        !                                                       #####",
"#####                                                        !                                                       #####",
"#####                                                        !                                                       #####",
"#####                                                        !                                                       #####",
"#####                                                        !                                                       #####",
"#####                                                        !                                                       #####",
"#####                                                        !                                                       #####",
"#####                                                        !                                                       #####",
"#####                                                        !                                                       #####",
"#############################################################!############################################################",
"#############################################################!############################################################",
"#############################################################!############################################################",
"#############################################################!############################################################",
"#############################################################!############################################################",
};
