/* XPM */
static char *small[] = {
/* columns rows colors chars-per-pixel */
"122 122 5 1",
"  c #FFFFFF",
"! c #33FF00",
"# c #FF0000",
"$ c #0000FF",
"% c #000000",
/* pixels */
"#############################################################%############################################################",
"#############################################################%############################################################",
"#############################################################%############################################################",
"#############################################################%############################################################",
"#############################################################%############################################################",
"#####$$$                                                     %                                                       #####",
"#####$$$                                                     %                                                       #####",
"#####$$$                                                     %                                                       #####",
"#####                                                        %                                                       #####",
"#####                                                        %                                                       #####",
"#####                                                        %                                                       #####",
"#####                                                        %                                                       #####",
"#####                                                        %                                                       #####",
"#####                                                        %                                                       #####",
"#####                                                        %                                                       #####",
"#####                                                        %                                                       #####",
"#####                                                        %                                                       #####",
"#####                                                        %                                                       #####",
"#####                                                        %                                                       #####",
"#####                                                        %                                                       #####",
"#####                                                        %                                                       #####",
"#####                                                        %                                                       #####",
"#####                                                        %                                                       #####",
"#####                                                        %                                                       #####",
"#####                                                        %                                                       #####",
"#####                                                        %                                                       #####",
"#####                                                        %                                                       #####",
"#####                                                        %                                                       #####",
"#####                                                        %                                                       #####",
"#####                                                        %                                                       #####",
"#####                                                        %                                                       #####",
"#####                                                        %                                                       #####",
"#####                                                        %                                                       #####",
"#####                                                        %                                                       #####",
"#####                                                        %                                                       #####",
"#####                                                        %                                                       #####",
"#####                                                        %                                                       #####",
"#####                                                        %                                                       #####",
"#####                                                        %                                                       #####",
"#####                                                        %                                                       #####",
"#####                                                        %                                                       #####",
"#####                                                        %                                                       #####",
"#####                                                        %                                                       #####",
"#####                                                        %                                                       #####",
"#####                                                        %                                                       #####",
"#####                                                        %                                                       #####",
"#####                                                        %                                                       #####",
"#####                                                        %                                                       #####",
"#####                                                        %                                                       #####",
"#####                                                        %                                                       #####",
"#####                                                        %                                                       #####",
"#####                                                        %                                                       #####",
"#####                                                        %                                                       #####",
"#####                                                        %                                                       #####",
"#####                                                        %                                                       #####",
"#####                                                        %                                                       #####",
"#####                                                        %                                                       #####",
"#####                                                        %                                                       #####",
"#####                                                        %                                                       #####",
"#####                                                        %                                                       #####",
"#####                                                        %                                                       #####",
"%%%%%%%%%%%%%%%%%%%%%%%%%%%%%%%%%%%%%%%%%%%%%%%%%%%%%%%%%%%%%%%%%%%%%%%%%%%%%%%%%%%%%%%%%%%%%%%%%%%%%%%%%%%%%%%%%%%%%%%%%%",
"#####                                                        %                                                       #####",
"#####                                                        %                                                       #####",
"#####                                                        %                                                       #####",
"#####                                                        %                                                       #####",
"#####                                                        %                                                       #####",
"#####                                                        %                                                       #####",
"#####                                                        %                                                       #####",
"#####                                                        %                                                       #####",
"#####                                                        %                                                       #####",
"#####                                                        %                                                       #####",
"#####                                                        %                                                       #####",
"#####                                                        %                                                       #####",
"#####                                                        %                                                       #####",
"#####                                                        %                                                       #####",
"#####                                                        %                                                       #####",
"#####                                                        %                                                       #####",
"#####                                                        %                                                       #####",
"#####                                                        %                                                       #####",
"#####                                                        %                                                       #####",
"#####                                                        %                                                       #####",
"#####                                                        %                                                       #####",
"#####                                                        %                                                       #####",
"#####                                                        %                                                       #####",
"#####                                                        %                                                       #####",
"#####                                                        %                                                       #####",
"#####                                                        %                                                       #####",
"#####                                                        %                                                       #####",
"#####                                                        %                                                       #####",
"#####                                                        %                                                       #####",
"#####                                                        %                                                       #####",
"#####                                                        %                                                       #####",
"#####                                                        %                                                       #####",
"#####                                                        %                                                       #####",
"#####                                                        %                                                       #####",
"#####                                                        %                                                       #####",
"#####                                                        %                                                       #####",
"#####                                                        %                                                       #####",
"#####                                                        %                                                       #####",
"#####                                                        %                                                       #####",
"#####                                                        %                                                       #####",
"#####                                                        %                                                       #####",
"#####                                                        %                                                       #####",
"#####                                                        %                                                       #####",
"#####                                                        %                                                       #####",
"#####                                                        %                                                       #####",
"#####                                                        %                                                       #####",
"#####                                                        %                                                       #####",
"#####                                                        %                                                       #####",
"#####                                                        %                                                       #####",
"#####                                                        %                                                       #####",
"#####                                                        %                                                       #####",
"#####                                                        %                                                       #####",
"#####                                                        %                                                       #####",
"#####                                                        %                                                       #####",
"#####                                                        %                                                       #####",
"#############################################################%############################################################",
"#############################################################%############################################################",
"#############################################################%############################################################",
"#############################################################%##########################################################!!",
"#############################################################%##########################################################!!",
};
